<svg xmlns="http://www.w3.org/2000/svg" viewBox="0 0 800 500">
  <rect width="800" height="500" fill="#111a4a"/>
  <g stroke="#f5c24a" stroke-width="6">
    <line x1="180" y1="120" x2="180" y2="40"/><line x1="180" y1="120" x2="250" y2="70"/><line x1="180" y1="120" x2="260" y2="120"/><line x1="180" y1="120" x2="250" y2="170"/><line x1="180" y1="120" x2="180" y2="200"/><line x1="180" y1="120" x2="110" y2="170"/><line x1="180" y1="120" x2="100" y2="120"/><line x1="180" y1="120" x2="110" y2="70"/>
    <line x1="560" y1="160" x2="560" y2="80"/><line x1="560" y1="160" x2="630" y2="110"/><line x1="560" y1="160" x2="640" y2="160"/><line x1="560" y1="160" x2="630" y2="210"/><line x1="560" y1="160" x2="560" y2="240"/><line x1="560" y1="160" x2="490" y2="210"/><line x1="560" y1="160" x2="480" y2="160"/><line x1="560" y1="160" x2="490" y2="110"/>
  </g>
  <circle cx="180" cy="120" r="18" fill="#ff7043"/>
  <circle cx="560" cy="160" r="18" fill="#ff7043"/>
  <path d="M90 430 Q240 310 390 430" fill="none" stroke="#d7262f" stroke-width="16"/>
  <path d="M410 430 Q560 310 710 430" fill="none" stroke="#d7262f" stroke-width="16"/>
</svg>
